<?xml version="1.0" standalone="no"?> <!DOCTYPE svg PUBLIC "-//W3C//DTD SVG 1.0//EN" "http://www.w3.org/TR/2001/REC-SVG-20010904/DTD/svg10.dtd" > <svg xmlns="http://www.w3.org/2000/svg" width="100%" height="100%">
<defs >
<font id="paypalforwarditalic" horiz-adv-x="526" ><font-face
    font-family="PayPalForward-Italic"
    units-per-em="1000"
    panose-1="2 11 5 3 2 2 4 9 2 4"
    ascent="988"
    descent="-258"
    alphabetic="0" />
<missing-glyph horiz-adv-x="513" d="M443 0H-29L77 665H549L443 0ZM145 618L267 375L466 618H145ZM110 575L33 91L232 333L110 575ZM488 575L288 333L411 90L488 575ZM375 48L254 290L54 48H375Z" />
<glyph unicode=" " glyph-name="space" horiz-adv-x="243" />
<glyph unicode="!" glyph-name="exclam" horiz-adv-x="263" d="M76 190L144 690H242L153 190H76ZM60 -12T45 3T30 42Q30 71 51 92T102 113Q125 113 140 97T155 58Q155 30 133 9T83 -12Q60 -12 45 3Z" />
<glyph unicode="&quot;" glyph-name="quotedbl" horiz-adv-x="374" d="M91 468L120 690H203L162 468H91ZM256 468L285 690H368L327 468H256Z" />
<glyph unicode="#" glyph-name="numbersign" horiz-adv-x="639" d="M509 417L451 260H569L547 200H430L355 0H284L358 200H187L111 0H40L116 200H0L22 260H138L197 417H80L102 477H219L295 682H366L290 477H460L537 682H608L531 477H648L624 417H509ZM380 260L438
417H268L209 260H380Z" />
<glyph unicode="$" glyph-name="dollar" horiz-adv-x="574" d="M444 580T368 590L338 395Q422 364 459 324T497 227Q497 142 438 86T279 20L264 -75H193L208 19Q153 22 115 36T45 76L60 173Q133 109 221 100L257 331Q176 362 139 399T102 489Q102 565 159 615T310
673L321 740H392L381 672Q472 663 526 618L511 526Q444 580 368 590ZM186 476T204 459T271 421L297 590Q243 584 215 560T186 499Q186 476 204 459ZM409 245T390 265T324 305L292 102Q351 109 380 139T409 215Q409 245 390 265Z" />
<glyph unicode="%" glyph-name="percent" horiz-adv-x="803" d="M70 553T98 604T171 679T265 703Q318 703 356 667T394 554Q394 470 364 419T291 346T203 325Q149 325 110 362T70 477Q70 553 98 604ZM92 0L644 682H715L163 0H92ZM324 591T305 615T251 640Q205
640 172 600T139 483Q139 436 158 412T213 388Q259 388 291 428T324 546Q324 591 305 615ZM418 207T447 258T520 333T614 357Q667 357 704 321T742 209Q742 125 712 74T638 1T551 -21Q497 -21 458 16T418 131Q418 207 447 258ZM673 246T654 270T600 294Q553 294
520 254T487 136Q487 87 506 63T560 39Q589 39 615 57T657 111T673 200Q673 246 654 270Z" />
<glyph unicode="&amp;" glyph-name="ampersand" horiz-adv-x="652" d="M594 333Q585 272 555 210T485 109Q504 79 520 69T558 59Q577 59 589 62L578 -10Q553 -15 535 -15Q496 -15 471 0T421 53Q379 22 325 2T216 -18Q122 -18 75 28T28 146Q28 224 75 277T220 376Q200
411 189 448T177 519Q177 566 200 608T270 676T382 702Q448 702 490 666T533 571Q533 503 486 453T331 353L440 172Q468 203 486 244T512 330L514 342H596L594 333ZM264 472T298 412Q383 448 417 480T451 558Q451 589 430 610T370 631Q319 631 292 600T264 523Q264
472 298 412ZM266 53T306 68T377 111L253 316Q181 281 149 246T116 159Q116 112 146 83T231 53Q266 53 306 68Z" />
<glyph unicode="&apos;" glyph-name="quotesingle" horiz-adv-x="209" d="M91 468L120 690H203L162 468H91Z" />
<glyph unicode="(" glyph-name="parenleft" horiz-adv-x="371" d="M120 -140T96 -36T71 169Q71 316 137 469T317 743H406Q288 616 223 463T158 163Q158 63 182 -39T252 -215H166Q120 -140 96 -36Z" />
<glyph unicode=")" glyph-name="parenright" horiz-adv-x="371" d="M63 -91T129 64T195 365Q195 464 171 566T101 743H186Q232 667 257 563T282 359Q282 212 216 58T35 -215H-54Q63 -91 129 64Z" />
<glyph unicode="*" glyph-name="asterisk" horiz-adv-x="422" d="M406 460L362 401L267 467L250 340H181L205 467L88 401L63 460L183 520L82 581L126 641L222 574L238 701H307L283 574L401 641L425 581L305 521L406 460Z" />
<glyph unicode="+" glyph-name="plus" horiz-adv-x="592" d="M318 230L288 39H218L248 230H57L69 300H259L289 491H360L330 300H518L507 230H318Z" />
<glyph unicode="," glyph-name="comma" horiz-adv-x="261" d="M123 113T138 96T153 50Q153 -11 115 -66T10 -149L20 -82Q42 -68 53 -53T70 -12Q51 -6 40 9T29 46Q29 73 49 93T99 113Q123 113 138 96Z" />
<glyph unicode="-" glyph-name="hyphen" horiz-adv-x="449" d="M375 300L364 230H57L69 300H375Z" />
<glyph unicode="." glyph-name="period" horiz-adv-x="250" d="M49 -12T34 3T19 42Q19 71 40 92T91 113Q114 113 129 97T144 58Q144 30 122 9T72 -12Q49 -12 34 3Z" />
<glyph unicode="/" glyph-name="slash" horiz-adv-x="399" d="M-69 -114L382 721H461L9 -114H-69Z" />
<glyph unicode="0" glyph-name="zero" horiz-adv-x="577" d="M698 704T755 646T812 455Q812 338 777 229T672 49T498 -22Q408 -22 350 37T291 233Q291 348 325 456T432 634T609 704Q698 704 755 646ZM524 619T476 556T406 403T384 228Q384 63 504 63Q577 63 625
127T696 284T719 458Q719 538 689 578T599 619Q524 619 476 556Z" />
<glyph unicode="1" glyph-name="one" horiz-adv-x="577" d="M464 83L451 0H45L58 83H214L292 578L151 521L166 613L359 690H404L309 83H464Z" />
<glyph unicode="2" glyph-name="two" horiz-adv-x="577" d="M283 292Q358 365 394 418T430 525Q430 569 402 593T317 617Q215 617 122 532L138 634Q222 704 345 704Q437 704 482 661T528 549Q528 473 483 402T349 246L181 83H462L449 0H27L34 47L283 292Z" />
<glyph unicode="3" glyph-name="three" horiz-adv-x="577" d="M81 99T123 80T222 61Q277 61 317 82T378 139T399 213Q399 262 361 293T248 325H201L214 402H255Q328 402 374 439T421 534Q421 573 393 598T306 623Q255 623 208 604T121 548L137 646Q215 704 326
704Q419 704 469 663T519 556Q519 487 476 439T358 372Q418 360 455 319T492 215Q492 152 460 98T364 11T213 -22Q95 -22 30 40L45 135Q81 99 123 80Z" />
<glyph unicode="4" glyph-name="four" horiz-adv-x="577" d="M554 0L576 144H267L278 220L677 698H753L679 223H776L764 144H666L643 0H554ZM642 554L376 223H589L642 554Z" />
<glyph unicode="5" glyph-name="five" horiz-adv-x="577" d="M134 61T224 61Q273 61 315 83T381 145T406 231Q406 286 369 322T269 359Q197 359 118 342L172 690H529L515 607H246L219 431Q269 437 304 437Q361 437 406 412T476 341T502 241Q502 172 466 112T362
15T208 -22Q160 -22 119 -7T45 35L60 130Q134 61 224 61Z" />
<glyph unicode="6" glyph-name="six" horiz-adv-x="577" d="M270 295T371 433T614 690H727Q643 621 569 545T448 402Q498 438 562 438Q621 438 668 413T743 343T770 239Q770 171 732 111T627 14T482 -22Q419 -22 371 4T297 77T270 179Q270 295 371 433ZM540 59T581
82T648 143T674 227Q674 263 657 293T610 341T542 359Q498 359 457 336T391 274T365 190Q365 135 402 97T495 59Q540 59 581 82Z" />
<glyph unicode="7" glyph-name="seven" horiz-adv-x="577" d="M103 0L494 607H141L154 690H609L597 611L204 0H103Z" />
<glyph unicode="8" glyph-name="eight" horiz-adv-x="577" d="M512 150T480 96T386 10T244 -22Q147 -22 94 26T41 154Q41 230 82 285T198 368Q158 384 137 418T115 499Q115 558 147 605T234 678T359 704Q443 704 494 662T545 551Q545 487 509 440T411 369Q461
351 486 312T512 218Q512 150 480 96ZM204 451T233 425T310 398Q371 398 411 435T451 531Q451 575 422 601T345 628Q286 628 245 592T204 497Q204 451 233 425ZM137 117T169 86T257 55Q302 55 339 74T397 130T419 214Q419 266 387 297T300 328Q230 328 184 285T137
169Q137 117 169 86Z" />
<glyph unicode="9" glyph-name="nine" horiz-adv-x="577" d="M588 395T487 257T244 0H132Q215 69 289 145T410 288Q388 272 359 262T296 252Q238 252 191 277T116 347T89 451Q89 519 127 579T231 676T376 712Q439 712 487 686T561 613T588 511Q588 395 487 257ZM318
631T277 608T210 547T184 463Q184 427 201 397T248 349T316 331Q360 331 401 354T467 416T493 500Q493 555 456 593T363 631Q318 631 277 608Z" />
<glyph unicode=":" glyph-name="colon" horiz-adv-x="251" d="M50 -12T35 3T20 42Q20 71 41 92T92 113Q115 113 130 97T145 58Q145 30 123 9T73 -12Q50 -12 35 3ZM108 356T93 371T78 410Q78 439 99 460T150 481Q173 481 188 465T203 426Q203 398 181 377T131 356Q108
356 93 371Z" />
<glyph unicode=";" glyph-name="semicolon" horiz-adv-x="263" d="M108 356T93 371T78 410Q78 439 99 460T150 481Q173 481 188 465T203 426Q203 398 181 377T131 356Q108 356 93 371ZM124 113T139 96T154 50Q154 -11 116 -66T11 -149L21 -82Q43 -68 54 -53T71
-12Q52 -6 41 9T30 46Q30 73 50 93T100 113Q124 113 139 96Z" />
<glyph unicode="&lt;" glyph-name="less" horiz-adv-x="593" d="M76 295L562 527L550 450L169 265V263L492 78L479 2L66 233L76 295Z" />
<glyph unicode="=" glyph-name="equal" horiz-adv-x="593" d="M759 458L748 388H298L310 458H759ZM534 398L523 328H73L85 398H534Z" />
<glyph unicode="&gt;" glyph-name="greater" horiz-adv-x="593" d="M508 234L22 2L34 79L415 264V266L92 451L105 527L518 295L508 234Z" />
<glyph unicode="?" glyph-name="question" horiz-adv-x="459" d="M362 704T406 662T451 550Q451 500 435 465T393 404T312 333Q263 292 246 262T220 182H142Q152 246 169 283T235 364L273 398Q307 428 323 445T347 481T356 530Q356 571 330 597T254 623Q159 623
74 548L89 646Q173 704 280 704Q362 704 406 662ZM128 -12T113 3T98 42Q98 71 120 92T171 113Q193 113 208 97T223 58Q223 30 202 9T151 -12Q128 -12 113 3Z" />
<glyph unicode="@" glyph-name="at" horiz-adv-x="968" d="M47 329T115 447T303 635T566 704Q677 704 757 664T879 550T922 379Q922 277 886 202T791 87T667 47Q613 47 586 73T561 146Q486 47 385 47Q323 47 289 88T254 197Q254 269 288 338T383 451T516 495Q560
495 587 471T623 409L646 479H722L644 229Q628 179 628 160Q628 138 641 124T684 110Q728 110 765 144T824 238T846 372Q846 497 771 567T551 637Q427 637 329 576T177 414T123 198Q123 113 159 49T264 -51T424 -87Q497 -87 560 -73T667 -36L656 -107Q564 -155
411 -155Q301 -155 219 -113T92 6T47 188Q47 329 115 447ZM337 164T356 138T413 112Q461 112 502 145T568 229T593 332Q593 375 572 401T513 427Q465 427 425 395T361 312T337 208Q337 164 356 138Z" />
<glyph unicode="A" glyph-name="A" horiz-adv-x="617" d="M137 158L55 0H-46L322 690H413L562 0H466L433 158H137ZM349 565L179 239H416L349 565Z" />
<glyph unicode="B" glyph-name="B" horiz-adv-x="601" d="M449 690T500 654T552 549Q552 475 512 428T402 362Q465 355 501 316T538 218Q538 114 468 57T264 0H30L139 690H349Q449 690 500 654ZM455 618T342 618H223L187 390H296Q368 390 411 429T455 531Q455
618 342 618ZM441 263T407 291T309 319H176L137 73H280Q355 73 398 111T441 214Q441 263 407 291Z" />
<glyph unicode="C" glyph-name="C" horiz-adv-x="634" d="M237 -23T171 21T73 137T41 288Q41 402 94 497T242 648T452 704Q513 703 559 689T645 648L629 547Q552 619 441 619Q364 619 294 576T182 458T139 296Q139 229 165 176T239 93T352 63Q464 63 564 135L548
34Q495 5 449 -9T337 -23Q237 -23 171 21Z" />
<glyph unicode="D" glyph-name="D" horiz-adv-x="700" d="M457 690T527 651T633 546T668 397Q668 292 618 201T475 55T258 0H29L138 690H356Q457 690 527 651ZM358 81T427 124T532 237T569 389Q569 488 510 548T341 609H220L137 81H264Q358 81 427 124Z" />
<glyph unicode="E" glyph-name="E" horiz-adv-x="517" d="M187 396H423L411 318H174L137 82H451L438 0H29L138 690H536L523 608H220L187 396Z" />
<glyph unicode="F" glyph-name="F" horiz-adv-x="494" d="M184 381H422L409 303H173L125 0H29L139 690H537L524 608H220L184 381Z" />
<glyph unicode="G" glyph-name="G" horiz-adv-x="695" d="M521 704T574 685T660 635L643 532Q572 619 446 619Q369 619 303 582T194 478T142 331Q140 318 140 292Q140 226 166 174T238 93T344 63Q443 64 511 109L537 272H390L404 358H640L594 60Q474 -22 331 -22Q245
-22 179 16T77 125T40 285Q40 401 95 497T245 648T450 704Q521 704 574 685Z" />
<glyph unicode="H" glyph-name="H" horiz-adv-x="717" d="M124 0H29L139 690H234L187 396H555L602 690H696L587 0H492L542 313H174L124 0Z" />
<glyph unicode="I" glyph-name="I" horiz-adv-x="255" d="M126 0H31L139 690H234L126 0Z" />
<glyph unicode="J" glyph-name="J" horiz-adv-x="367" d="M268 193Q250 80 199 33T56 -14Q31 -14 7 -10T-34 0L-20 87Q-6 81 16 77T55 72Q106 72 134 101T172 191L251 690H346L268 193Z" />
<glyph unicode="K" glyph-name="K" horiz-adv-x="630" d="M585 0H462L235 318L165 256L125 0H30L139 690H234L187 390L530 690H657L309 383L585 0Z" />
<glyph unicode="L" glyph-name="L" horiz-adv-x="488" d="M137 81H447L434 0H29L138 690H233L137 81Z" />
<glyph unicode="M" glyph-name="M" horiz-adv-x="834" d="M286 690L387 138L663 690H743L739 0H648L657 522L398 0H334L239 518L83 0H-6L206 690H286Z" />
<glyph unicode="N" glyph-name="N" horiz-adv-x="702" d="M224 690L508 152L592 690H681L571 0H485L202 532L118 0H29L139 690H224Z" />
<glyph unicode="O" glyph-name="O" horiz-adv-x="781" d="M541 704T610 662T714 550T750 394Q750 292 699 196T556 39T347 -22Q243 -22 175 23T74 141T41 295Q41 395 91 489T234 644T444 704Q541 704 610 662ZM358 619T289 574T179 455T139 298Q139 232 165 179T238
94T347 63Q432 63 501 109T611 232T651 392Q651 457 626 508T554 589T442 619Q358 619 289 574Z" />
<glyph unicode="P" glyph-name="P" horiz-adv-x="569" d="M458 690T513 640T569 504Q569 386 498 316T283 245H163L124 0H29L138 690H348Q458 690 513 640ZM471 547T437 580T334 613H221L175 322H293Q384 322 427 370T471 493Q471 547 437 580Z" />
<glyph unicode="Q" glyph-name="Q" horiz-adv-x="781" d="M750 317T720 242T636 106L717 1L612 0L574 51Q472 -22 347 -22Q243 -22 175 23T74 141T41 295Q41 395 91 489T234 644T444 704Q541 704 610 662T714 550T750 394Q750 317 720 242ZM442 63T519 122L399
280H503L579 181Q613 226 632 281T651 392Q651 457 626 508T554 589T442 619Q358 619 289 574T179 455T139 298Q139 232 165 179T238 94T347 63Q442 63 519 122Z" />
<glyph unicode="R" glyph-name="R" horiz-adv-x="609" d="M572 411T527 346T390 257L539 0H428L292 245H287H167L128 0H33L142 690H352Q462 690 517 640T572 504Q572 411 527 346ZM296 322Q388 322 431 370T474 493Q474 547 441 580T338 613H225L179 322H296Z" />
<glyph unicode="S" glyph-name="S" horiz-adv-x="571" d="M138 64T247 64Q301 64 337 84T390 137T407 203Q407 233 391 254T334 296L247 333Q173 366 141 405T108 500Q108 561 139 607T225 679T353 704Q413 703 458 688T537 641L522 548Q445 618 343 619Q281 619
242 588T202 509Q202 482 221 463T293 420L378 382Q447 348 475 309T504 214Q504 151 477 98T390 12T236 -22Q107 -22 33 43L49 142Q138 64 247 64Z" />
<glyph unicode="T" glyph-name="T" horiz-adv-x="528" d="M77 690H573L560 609H360L264 0H168L265 609H64L77 690Z" />
<glyph unicode="U" glyph-name="U" horiz-adv-x="690" d="M194 -22T130 31T66 198Q66 232 72 269L138 690H233L165 257Q161 234 161 209Q161 139 198 99T304 59Q394 59 443 112T507 257L575 690H669L603 271Q558 -22 296 -22Q194 -22 130 31Z" />
<glyph unicode="V" glyph-name="V" horiz-adv-x="617" d="M277 125L571 690H671L304 0H213L64 690H159L277 125Z" />
<glyph unicode="W" glyph-name="W" horiz-adv-x="910" d="M161 690L242 150L481 690H547L614 150L865 690H961L634 0H553L487 516L256 0H176L67 690H161Z" />
<glyph unicode="X" glyph-name="X" horiz-adv-x="612" d="M546 0H439L297 278L75 0H-32L256 357L86 690H191L326 428L539 690H646L367 349L546 0Z" />
<glyph unicode="Y" glyph-name="Y" horiz-adv-x="564" d="M171 690L262 439Q283 383 289 358H293Q314 398 339 436L510 690H615L325 273L282 0H187L230 273L71 690H171Z" />
<glyph unicode="Z" glyph-name="Z" horiz-adv-x="614" d="M603 612L127 82H535L521 0H-3L10 77L485 608H111L123 690H615L603 612Z" />
<glyph unicode="[" glyph-name="bracketleft" horiz-adv-x="364" d="M112 -142H238L227 -215H20L171 743H378L366 670H240L112 -142Z" />
<glyph unicode="\" glyph-name="backslash" horiz-adv-x="399" d="M154 721L341 -114H263L75 721H154Z" />
<glyph unicode="]" glyph-name="bracketright" horiz-adv-x="364" d="M234 670H108L119 743H326L175 -215H-32L-20 -142H106L234 670Z" />
<glyph unicode="^" glyph-name="asciicircum" horiz-adv-x="607" d="M353 623L119 326H36L335 704H401L581 326H498L357 623H353Z" />
<glyph unicode="_" glyph-name="underscore" horiz-adv-x="452" d="M406 -50L394 -120H-58L-46 -50H406Z" />
<glyph unicode="`" glyph-name="grave" horiz-adv-x="338" d="M323 562H250L143 733H239L323 562Z" />
<glyph unicode="a" glyph-name="a" horiz-adv-x="534" d="M220 424T180 414T108 384L121 465Q151 483 193 493T276 504Q373 504 420 464T468 340Q468 318 463 283L418 0H331L341 68Q273 -17 156 -17Q84 -17 45 18T5 112Q5 203 71 253T250 304Q325 304 375 289Q378
307 378 322Q378 424 259 424Q220 424 180 414ZM248 57T298 101T363 215Q313 229 251 229Q174 229 133 202T92 127Q92 95 116 76T181 57Q248 57 298 101Z" />
<glyph unicode="b" glyph-name="b" horiz-adv-x="603" d="M219 690L177 422Q207 459 254 481T361 504Q419 504 465 476T538 397T564 284Q564 202 525 133T422 24T287 -17Q225 -17 185 8T120 81L107 0H21L130 690H219ZM472 339T435 381T333 424Q283 424 240 397T171
322T145 214Q145 147 183 105T277 63Q328 63 373 91T445 167T472 273Q472 339 435 381Z" />
<glyph unicode="c" glyph-name="c" horiz-adv-x="487" d="M176 -18T127 12T50 93T22 207Q22 285 57 353T160 462T319 504Q407 504 462 460L447 369Q396 423 314 423Q256 423 211 394T140 316T115 213Q115 146 153 105T257 63Q298 63 339 78T412 122L398 30Q359
4 320 -7T237 -18Q176 -18 127 12Z" />
<glyph unicode="d" glyph-name="d" horiz-adv-x="612" d="M411 0L423 75Q391 33 343 9T234 -16Q176 -16 130 12T58 90T32 204Q32 284 70 353T171 464T301 505Q426 505 472 408L517 690H606L497 0H411ZM124 150T161 108T262 65Q312 65 355 92T425 167T451 275Q451
342 413 383T318 425Q268 425 223 397T151 321T124 216Q124 150 161 108Z" />
<glyph unicode="e" glyph-name="e" horiz-adv-x="539" d="M403 504T452 450T502 308Q502 279 499 260T489 215H113Q110 140 152 100T266 59Q316 59 357 71T438 109L426 34Q349 -18 244 -18Q175 -18 125 11T48 93T21 210Q21 274 53 342T150 457T310 504Q403 504
452 450ZM237 429T190 388T125 287H415Q416 295 416 309Q416 365 386 397T301 429Q237 429 190 388Z" />
<glyph unicode="f" glyph-name="f" horiz-adv-x="346" d="M386 710T416 699L404 626Q377 635 347 635Q303 635 279 609T244 523L239 488H359L347 411H227L162 0H73L137 411H41L53 488H150L157 532Q172 623 219 666T341 710Q386 710 416 699Z" />
<glyph unicode="g" glyph-name="g" horiz-adv-x="602" d="M414 504T464 406L477 488H564L494 47Q473 -89 392 -158T185 -228Q125 -228 82 -216T17 -180L30 -96Q60 -125 99 -138T191 -151Q278 -151 334 -105T405 31L413 80Q378 34 328 9T217 -17Q160 -17 116 12T47
92T22 206Q22 288 61 356T164 464T301 504Q414 504 464 406ZM254 424T210 397T140 322T114 216Q114 148 152 106T248 63Q298 63 342 90T413 166T440 272Q440 340 404 382T307 424Q254 424 210 397Z" />
<glyph unicode="h" glyph-name="h" horiz-adv-x="594" d="M175 409Q207 453 255 478T361 504Q441 504 484 459T528 334Q528 307 524 283L479 0H389L433 277Q436 297 436 313Q436 366 408 395T325 424Q258 424 210 376T150 252L110 0H21L130 690H220L175 409Z" />
<glyph unicode="i" glyph-name="i" horiz-adv-x="225" d="M110 0H21L96 488H186L110 0ZM134 568T121 582T107 617Q107 643 127 662T173 681Q194 681 207 667T221 632Q221 607 201 588T155 568Q134 568 121 582Z" />
<glyph unicode="j" glyph-name="j" horiz-adv-x="225" d="M90 -127T40 -175T-87 -223Q-134 -223 -164 -212L-151 -136Q-124 -145 -92 -145Q-47 -145 -21 -117T17 -23L98 488H187L106 -25Q90 -127 40 -175ZM135 568T122 582T108 617Q108 643 128 662T174 681Q195
681 208 667T222 632Q222 607 202 588T156 568Q135 568 122 582Z" />
<glyph unicode="k" glyph-name="k" horiz-adv-x="511" d="M456 0H349L207 238L131 174L103 0H14L122 690H212L148 287L395 488H509L278 296L456 0Z" />
<glyph unicode="l" glyph-name="l" horiz-adv-x="225" d="M110 0H21L129 690H219L110 0Z" />
<glyph unicode="m" glyph-name="m" horiz-adv-x="904" d="M761 504T800 463T840 348Q840 321 836 298L790 0H700L747 291Q750 309 750 324Q750 371 726 397T653 424Q591 424 547 376T490 252L450 0H361L405 277Q408 298 408 315Q408 367 384 395T315 424Q256 424
210 376T150 252L110 0H21L98 488H184L172 409Q204 453 248 478T349 504Q405 504 442 476T492 396Q563 504 684 504Q761 504 800 463Z" />
<glyph unicode="n" glyph-name="n" horiz-adv-x="593" d="M440 504T483 460T527 335Q527 307 523 283L478 0H389L433 277Q436 297 436 313Q436 366 408 395T325 424Q258 424 210 376T150 252L110 0H21L98 488H184L171 409Q203 452 253 478T361 504Q440 504 483 460Z" />
<glyph unicode="o" glyph-name="o" horiz-adv-x="576" d="M379 504T429 475T508 395T536 278Q536 204 500 136T397 26T244 -17Q180 -17 130 12T51 93T22 210Q22 285 58 352T161 462T314 504Q379 504 429 475ZM253 423T208 394T138 316T113 214Q113 148 150 106T247
63Q305 63 350 93T420 173T445 275Q445 340 408 381T311 423Q253 423 208 394Z" />
<glyph unicode="p" glyph-name="p" horiz-adv-x="603" d="M185 488L173 413Q205 455 253 479T362 504Q419 504 465 476T538 397T564 284Q564 204 526 135T425 24T295 -17Q169 -17 123 80L77 -211H-13L98 488H185ZM472 338T435 380T333 423Q283 423 240 396T170
321T144 213Q144 147 182 105T277 63Q328 63 373 91T445 167T472 272Q472 338 435 380Z" />
<glyph unicode="q" glyph-name="q" horiz-adv-x="602" d="M365 -202L408 66Q378 29 331 7T224 -16Q165 -16 119 12T46 91T20 204Q20 285 59 354T162 464T297 505Q359 505 399 480T464 406L477 488H563L455 -202H365ZM112 149T149 107T251 64Q301 64 344 91T414
166T440 274Q440 341 402 383T307 425Q256 425 211 397T139 321T112 215Q112 149 149 107Z" />
<glyph unicode="r" glyph-name="r" horiz-adv-x="347" d="M324 413T303 413Q244 413 203 371T149 247L110 0H21L98 488H184L171 405Q231 491 315 491Q336 491 354 488L342 410Q324 413 303 413Z" />
<glyph unicode="s" glyph-name="s" horiz-adv-x="446" d="M136 -16T92 1T20 46L34 133Q64 96 106 77T193 58Q241 58 268 79T295 137Q295 165 273 181T199 216Q127 242 95 269T62 346Q62 392 88 428T159 483T261 503Q355 503 407 454L395 373Q368 401 331 415T249
430Q206 430 179 410T152 359Q152 332 176 317T262 280Q324 257 354 229T385 152Q385 75 331 30T186 -16Q136 -16 92 1Z" />
<glyph unicode="t" glyph-name="t" horiz-adv-x="358" d="M141 488L165 644H255L230 488H347L335 411H218L178 162Q175 146 175 132Q175 66 236 66Q257 66 283 74L272 0Q257 -4 242 -6T208 -9Q148 -9 116 23T84 114Q84 126 88 156L128 411H32L44 488H141Z" />
<glyph unicode="u" glyph-name="u" horiz-adv-x="593" d="M405 85Q374 37 324 10T215 -17Q136 -17 93 27T49 152Q49 180 53 204L98 488H187L144 211Q141 192 141 174Q141 121 169 93T251 64Q318 64 366 112T426 236L466 488H555L478 0H391L405 85Z" />
<glyph unicode="v" glyph-name="v" horiz-adv-x="471" d="M230 0H147L31 488H120L203 107L406 488H499L230 0Z" />
<glyph unicode="w" glyph-name="w" horiz-adv-x="719" d="M512 0H422L370 375L199 0H110L40 488H129L173 104L345 488H429L480 105L645 488H736L512 0Z" />
<glyph unicode="x" glyph-name="x" horiz-adv-x="492" d="M150 488L247 318L388 488H494L289 247L433 0H334L229 187L71 0H-35L187 258L53 488H150Z" />
<glyph unicode="y" glyph-name="y" horiz-adv-x="476" d="M146 19L31 488H121L208 123L408 488H504L106 -211H11L146 19Z" />
<glyph unicode="z" glyph-name="z" horiz-adv-x="473" d="M470 426L115 77H415L403 0H-21L-10 65L342 411H55L68 488H481L470 426Z" />
<glyph unicode="{" glyph-name="braceleft" horiz-adv-x="371" d="M332 669T307 649T277 591L244 387Q238 342 215 310T149 264V262Q207 241 207 167Q207 152 204 132L175 -51Q173 -67 173 -74Q173 -140 242 -143L230 -215Q157 -214 124 -185T91 -97Q91 -73 95
-50L124 132Q125 138 125 150Q125 183 106 204T44 227L56 299Q104 301 130 325T163 386L196 593Q207 663 253 702T382 743L370 671Q332 669 307 649Z" />
<glyph unicode="|" glyph-name="bar" horiz-adv-x="322" d="M261 690L119 -210H37L179 690H261Z" />
<glyph unicode="}" glyph-name="braceright" horiz-adv-x="371" d="M196 742T231 712T267 627Q267 611 264 593L231 386Q229 374 229 368Q229 338 249 320T311 299L300 227Q252 226 225 199T191 132L162 -50Q149 -133 103 -173T-25 -215L-14 -143Q66 -140 82 -51L110
132Q126 236 207 262V264Q147 285 147 356Q147 371 150 387L183 591Q184 597 184 608Q184 637 166 653T114 671L125 743Q196 742 231 712Z" />
<glyph unicode="~" glyph-name="asciitilde" horiz-adv-x="592" d="M517 262T471 226T371 189Q346 189 324 199T277 228Q245 251 229 260T197 270Q169 270 146 251T112 192H47Q63 267 109 303T209 340Q234 340 255 330T304 301Q310 297 327 284T358 265T384 258Q412
258 435 278T468 337H534Q517 262 471 226Z" />
</font>
</defs>
</svg>
